<svg width="26" height="24" viewBox="0 0 26 24" fill="none" xmlns="http://www.w3.org/2000/svg">
<path d="M4.8 13.2C5.76 13.2 6.64 13.46 7.44 13.98C8.24 14.5 8.83 15.21 9.21 16.11L9.51 16.8H10.26C11.1 16.8 11.8 17.0952 12.36 17.6856C12.92 18.276 13.2 18.9808 13.2 19.8C13.2 20.64 12.91 21.35 12.33 21.93C11.75 22.51 11.04 22.8 10.2 22.8H4.8C3.48 22.8 2.35 22.33 1.41 21.39C0.47 20.45 0 19.32 0 18C0 16.66 0.47 15.5248 1.41 14.5944C2.35 13.664 3.48 13.1992 4.8 13.2ZM11.1 0C10.74 1.98 10.85 3.9152 11.43 5.8056C12.01 7.696 13.01 9.3508 14.43 10.77C15.85 12.19 17.5052 13.19 19.3956 13.77C21.286 14.35 23.2208 14.46 25.2 14.1C24.68 16.94 23.33 19.2852 21.15 21.1356C18.97 22.986 16.45 23.9408 13.59 24C14.23 23.48 14.7252 22.8548 15.0756 22.1244C15.426 21.394 15.6008 20.6192 15.6 19.8C15.6 18.44 15.1748 17.2648 14.3244 16.2744C13.474 15.284 12.3892 14.6892 11.07 14.49C10.43 13.35 9.5552 12.45 8.4456 11.79C7.336 11.13 6.1208 10.8 4.8 10.8C4.16 10.8 3.5348 10.88 2.9244 11.04C2.314 11.2 1.7392 11.44 1.2 11.76C1.24 8.86 2.1852 6.31 4.0356 4.11C5.886 1.91 8.2408 0.54 11.1 0Z" fill="#7466E1"/>
</svg>
