<svg width="24" height="24" viewBox="0 0 24 24" fill="none" xmlns="http://www.w3.org/2000/svg">
<path d="M4.57143 13.2C5.48571 13.2 6.32381 13.46 7.08571 13.98C7.84762 14.5 8.40952 15.21 8.77143 16.11L9.05714 16.8H9.77143C10.5714 16.8 11.2381 17.0952 11.7714 17.6856C12.3048 18.276 12.5714 18.9808 12.5714 19.8C12.5714 20.64 12.2952 21.35 11.7429 21.93C11.1905 22.51 10.5143 22.8 9.71429 22.8H4.57143C3.31429 22.8 2.2381 22.33 1.34286 21.39C0.447619 20.45 0 19.32 0 18C0 16.66 0.447619 15.5248 1.34286 14.5944C2.2381 13.664 3.31429 13.1992 4.57143 13.2ZM10.5714 0C10.2286 1.98 10.3333 3.9152 10.8857 5.8056C11.4381 7.696 12.3905 9.3508 13.7429 10.77C15.0952 12.19 16.6716 13.19 18.472 13.77C20.2724 14.35 22.115 14.46 24 14.1C23.5048 16.94 22.219 19.2852 20.1429 21.1356C18.0667 22.986 15.6667 23.9408 12.9429 24C13.5524 23.48 14.024 22.8548 14.3577 22.1244C14.6914 21.394 14.8579 20.6192 14.8571 19.8C14.8571 18.44 14.4522 17.2648 13.6423 16.2744C12.8324 15.284 11.7992 14.6892 10.5429 14.49C9.93333 13.35 9.10019 12.45 8.04343 11.79C6.98667 11.13 5.82933 10.8 4.57143 10.8C3.9619 10.8 3.36648 10.88 2.78514 11.04C2.20381 11.2 1.65638 11.44 1.14286 11.76C1.18095 8.86 2.08114 6.31 3.84343 4.11C5.60571 1.91 7.84838 0.54 10.5714 0Z" fill="black"/>
</svg>
