<svg width="26" height="25" viewBox="0 0 26 25" fill="none" xmlns="http://www.w3.org/2000/svg">
<path d="M5.60005 13.7C6.56005 13.7 7.44005 13.96 8.24005 14.48C9.04005 15 9.63005 15.71 10.01 16.61L10.31 17.3H11.06C11.9 17.3 12.6 17.5952 13.16 18.1856C13.72 18.776 14 19.4808 14 20.3C14 21.14 13.71 21.85 13.13 22.43C12.55 23.01 11.84 23.3 11 23.3H5.60005C4.28005 23.3 3.15005 22.83 2.21005 21.89C1.27005 20.95 0.800049 19.82 0.800049 18.5C0.800049 17.16 1.27005 16.0248 2.21005 15.0944C3.15005 14.164 4.28005 13.6992 5.60005 13.7ZM11.9 0.5C11.54 2.48 11.65 4.4152 12.23 6.3056C12.81 8.196 13.81 9.8508 15.23 11.27C16.65 12.69 18.3053 13.69 20.1957 14.27C22.0861 14.85 24.0208 14.96 26 14.6C25.48 17.44 24.1301 19.7852 21.9501 21.6356C19.7701 23.486 17.25 24.4408 14.39 24.5C15.03 23.98 15.5252 23.3548 15.8756 22.6244C16.226 21.894 16.4008 21.1192 16.4 20.3C16.4 18.94 15.9748 17.7648 15.1244 16.7744C14.274 15.784 13.1892 15.1892 11.87 14.99C11.23 13.85 10.3552 12.95 9.24565 12.29C8.13605 11.63 6.92085 11.3 5.60005 11.3C4.96005 11.3 4.33485 11.38 3.72445 11.54C3.11405 11.7 2.53925 11.94 2.00005 12.26C2.04005 9.36 2.98525 6.81 4.83565 4.61C6.68605 2.41 9.04085 1.04 11.9 0.5Z" fill="#00FFC2"/>
</svg>
