<svg width="25" height="25" viewBox="0 0 25 25" fill="none" xmlns="http://www.w3.org/2000/svg">
<g clip-path="url(#clip0_175_62)">
<path d="M12.8 17.75C15.6995 17.75 18.05 15.3995 18.05 12.5C18.05 9.60051 15.6995 7.25 12.8 7.25C9.90055 7.25 7.55005 9.60051 7.55005 12.5C7.55005 15.3995 9.90055 17.75 12.8 17.75Z" fill="white"/>
<path d="M12.8 4.35625V1.25M12.8 23.75V20.6437M18.5625 6.7375L20.75 4.55M4.85005 20.45L7.0438 18.2563M7.0438 6.73125L4.8563 4.54375M20.7625 20.45L18.5688 18.2563M4.6563 12.5H1.55005M24.05 12.5H20.9438" stroke="white" stroke-miterlimit="10" stroke-linecap="round"/>
</g>
<defs>
<clipPath id="clip0_175_62">
<rect width="24" height="24" fill="white" transform="translate(0.800049 0.5)"/>
</clipPath>
</defs>
</svg>
